<mxfile host="app.diagrams.net" modified="2021-06-04T10:46:32.703Z" agent="5.0 (Windows NT 10.0; Win64; x64) AppleWebKit/537.36 (KHTML, like Gecko) Chrome/91.0.4472.77 Safari/537.36" etag="hiYqNcekuuY0VcIRB4su" version="14.7.6" type="github">
  <diagram name="Page-1" id="ff44883e-f642-bcb2-894b-16b3d25a3f0b">
    <mxGraphModel dx="2844" dy="1524" grid="1" gridSize="10" guides="1" tooltips="1" connect="1" arrows="1" fold="1" page="1" pageScale="1.5" pageWidth="1169" pageHeight="826" math="0" shadow="0">
      <root>
        <object label="" id="0">
          <mxCell style=";html=1;" />
        </object>
        <mxCell id="1" style=";html=1;" parent="0" />
        <mxCell id="pzgc2I4rD5SpLiHXZyAi-2" value="" style="edgeStyle=orthogonalEdgeStyle;orthogonalLoop=1;jettySize=auto;html=1;strokeColor=#FF4747;" edge="1" parent="1" target="pzgc2I4rD5SpLiHXZyAi-1">
          <mxGeometry relative="1" as="geometry">
            <mxPoint x="260" y="630" as="sourcePoint" />
          </mxGeometry>
        </mxCell>
        <mxCell id="f0bcc99304e6f5a-1" value="1" style="ellipse;whiteSpace=wrap;html=1;shadow=1;strokeWidth=4;fontSize=30;align=center;" parent="1" vertex="1">
          <mxGeometry x="180" y="590" width="80" height="80" as="geometry" />
        </mxCell>
        <mxCell id="pzgc2I4rD5SpLiHXZyAi-4" value="" style="edgeStyle=orthogonalEdgeStyle;orthogonalLoop=1;jettySize=auto;html=1;" edge="1" parent="1" source="pzgc2I4rD5SpLiHXZyAi-1" target="pzgc2I4rD5SpLiHXZyAi-3">
          <mxGeometry relative="1" as="geometry" />
        </mxCell>
        <mxCell id="pzgc2I4rD5SpLiHXZyAi-6" value="" style="orthogonalLoop=1;jettySize=auto;html=1;strokeColor=#FF4747;" edge="1" parent="1" source="pzgc2I4rD5SpLiHXZyAi-1" target="pzgc2I4rD5SpLiHXZyAi-5">
          <mxGeometry relative="1" as="geometry" />
        </mxCell>
        <mxCell id="pzgc2I4rD5SpLiHXZyAi-22" value="" style="edgeStyle=none;orthogonalLoop=1;jettySize=auto;html=1;" edge="1" parent="1" source="pzgc2I4rD5SpLiHXZyAi-1" target="pzgc2I4rD5SpLiHXZyAi-21">
          <mxGeometry relative="1" as="geometry" />
        </mxCell>
        <mxCell id="pzgc2I4rD5SpLiHXZyAi-1" value="2" style="ellipse;whiteSpace=wrap;html=1;shadow=1;strokeWidth=4;fontSize=30;align=center;" vertex="1" parent="1">
          <mxGeometry x="400" y="590" width="80" height="80" as="geometry" />
        </mxCell>
        <mxCell id="pzgc2I4rD5SpLiHXZyAi-20" value="" style="edgeStyle=none;orthogonalLoop=1;jettySize=auto;html=1;entryX=0;entryY=0.5;entryDx=0;entryDy=0;" edge="1" parent="1" source="pzgc2I4rD5SpLiHXZyAi-3" target="pzgc2I4rD5SpLiHXZyAi-15">
          <mxGeometry relative="1" as="geometry">
            <mxPoint x="980" y="810" as="targetPoint" />
          </mxGeometry>
        </mxCell>
        <mxCell id="pzgc2I4rD5SpLiHXZyAi-3" value="8" style="ellipse;whiteSpace=wrap;html=1;shadow=1;strokeWidth=4;fontSize=30;align=center;" vertex="1" parent="1">
          <mxGeometry x="660" y="590" width="80" height="80" as="geometry" />
        </mxCell>
        <mxCell id="pzgc2I4rD5SpLiHXZyAi-8" value="" style="edgeStyle=none;orthogonalLoop=1;jettySize=auto;html=1;strokeColor=#FF4747;" edge="1" parent="1" source="pzgc2I4rD5SpLiHXZyAi-5" target="pzgc2I4rD5SpLiHXZyAi-7">
          <mxGeometry relative="1" as="geometry" />
        </mxCell>
        <mxCell id="pzgc2I4rD5SpLiHXZyAi-14" value="" style="edgeStyle=none;orthogonalLoop=1;jettySize=auto;html=1;" edge="1" parent="1" source="pzgc2I4rD5SpLiHXZyAi-5" target="pzgc2I4rD5SpLiHXZyAi-13">
          <mxGeometry relative="1" as="geometry" />
        </mxCell>
        <mxCell id="pzgc2I4rD5SpLiHXZyAi-44" style="edgeStyle=none;orthogonalLoop=1;jettySize=auto;html=1;exitX=1;exitY=1;exitDx=0;exitDy=0;" edge="1" parent="1" source="pzgc2I4rD5SpLiHXZyAi-5" target="pzgc2I4rD5SpLiHXZyAi-15">
          <mxGeometry relative="1" as="geometry" />
        </mxCell>
        <mxCell id="pzgc2I4rD5SpLiHXZyAi-52" style="edgeStyle=none;orthogonalLoop=1;jettySize=auto;html=1;exitX=1;exitY=0.5;exitDx=0;exitDy=0;entryX=0;entryY=0.5;entryDx=0;entryDy=0;" edge="1" parent="1" source="pzgc2I4rD5SpLiHXZyAi-5" target="pzgc2I4rD5SpLiHXZyAi-9">
          <mxGeometry relative="1" as="geometry" />
        </mxCell>
        <mxCell id="pzgc2I4rD5SpLiHXZyAi-5" value="3" style="ellipse;whiteSpace=wrap;html=1;shadow=1;strokeWidth=4;fontSize=30;align=center;" vertex="1" parent="1">
          <mxGeometry x="620" y="370" width="80" height="80" as="geometry" />
        </mxCell>
        <mxCell id="pzgc2I4rD5SpLiHXZyAi-36" style="edgeStyle=orthogonalEdgeStyle;rounded=0;jumpStyle=sharp;orthogonalLoop=1;jettySize=auto;html=1;exitX=0.5;exitY=1;exitDx=0;exitDy=0;strokeColor=#FF4747;dashed=1;strokeWidth=3;" edge="1" parent="1" source="pzgc2I4rD5SpLiHXZyAi-7">
          <mxGeometry relative="1" as="geometry">
            <mxPoint x="1020" y="320" as="targetPoint" />
          </mxGeometry>
        </mxCell>
        <mxCell id="pzgc2I4rD5SpLiHXZyAi-7" value="4" style="ellipse;whiteSpace=wrap;html=1;shadow=1;strokeWidth=4;fontSize=30;align=center;" vertex="1" parent="1">
          <mxGeometry x="980" y="80" width="80" height="80" as="geometry" />
        </mxCell>
        <mxCell id="pzgc2I4rD5SpLiHXZyAi-12" value="" style="edgeStyle=none;orthogonalLoop=1;jettySize=auto;html=1;strokeColor=#FF4747;" edge="1" parent="1" source="pzgc2I4rD5SpLiHXZyAi-9" target="pzgc2I4rD5SpLiHXZyAi-11">
          <mxGeometry relative="1" as="geometry" />
        </mxCell>
        <mxCell id="pzgc2I4rD5SpLiHXZyAi-9" value="5" style="ellipse;whiteSpace=wrap;html=1;shadow=1;strokeWidth=4;fontSize=30;align=center;" vertex="1" parent="1">
          <mxGeometry x="980" y="330" width="80" height="80" as="geometry" />
        </mxCell>
        <mxCell id="pzgc2I4rD5SpLiHXZyAi-25" value="" style="edgeStyle=none;orthogonalLoop=1;jettySize=auto;html=1;strokeColor=#FF4747;" edge="1" parent="1" source="pzgc2I4rD5SpLiHXZyAi-11" target="pzgc2I4rD5SpLiHXZyAi-24">
          <mxGeometry relative="1" as="geometry" />
        </mxCell>
        <mxCell id="pzgc2I4rD5SpLiHXZyAi-11" value="7" style="ellipse;whiteSpace=wrap;html=1;shadow=1;strokeWidth=4;fontSize=30;align=center;" vertex="1" parent="1">
          <mxGeometry x="1270" y="330" width="80" height="80" as="geometry" />
        </mxCell>
        <mxCell id="pzgc2I4rD5SpLiHXZyAi-70" style="edgeStyle=none;rounded=1;orthogonalLoop=1;jettySize=auto;html=1;exitX=0.5;exitY=1;exitDx=0;exitDy=0;entryX=0.5;entryY=0;entryDx=0;entryDy=0;fontSize=11;fontColor=#000000;strokeColor=#000000;" edge="1" parent="1" source="pzgc2I4rD5SpLiHXZyAi-13" target="pzgc2I4rD5SpLiHXZyAi-21">
          <mxGeometry relative="1" as="geometry" />
        </mxCell>
        <mxCell id="pzgc2I4rD5SpLiHXZyAi-13" value="6" style="ellipse;whiteSpace=wrap;html=1;shadow=1;strokeWidth=4;fontSize=30;align=center;" vertex="1" parent="1">
          <mxGeometry x="1010" y="540" width="80" height="80" as="geometry" />
        </mxCell>
        <mxCell id="pzgc2I4rD5SpLiHXZyAi-18" value="" style="edgeStyle=none;orthogonalLoop=1;jettySize=auto;html=1;" edge="1" parent="1" source="pzgc2I4rD5SpLiHXZyAi-15" target="pzgc2I4rD5SpLiHXZyAi-17">
          <mxGeometry relative="1" as="geometry" />
        </mxCell>
        <mxCell id="pzgc2I4rD5SpLiHXZyAi-15" value="9" style="ellipse;whiteSpace=wrap;html=1;shadow=1;strokeWidth=4;fontSize=30;align=center;" vertex="1" parent="1">
          <mxGeometry x="910" y="730" width="80" height="80" as="geometry" />
        </mxCell>
        <mxCell id="pzgc2I4rD5SpLiHXZyAi-17" value="12" style="ellipse;whiteSpace=wrap;html=1;shadow=1;strokeWidth=4;fontSize=30;align=center;" vertex="1" parent="1">
          <mxGeometry x="1220" y="810" width="80" height="80" as="geometry" />
        </mxCell>
        <mxCell id="pzgc2I4rD5SpLiHXZyAi-53" style="edgeStyle=none;orthogonalLoop=1;jettySize=auto;html=1;exitX=1;exitY=0.5;exitDx=0;exitDy=0;entryX=0.354;entryY=0.979;entryDx=0;entryDy=0;entryPerimeter=0;" edge="1" parent="1" source="pzgc2I4rD5SpLiHXZyAi-21" target="pzgc2I4rD5SpLiHXZyAi-24">
          <mxGeometry relative="1" as="geometry">
            <mxPoint x="1470" y="670" as="targetPoint" />
          </mxGeometry>
        </mxCell>
        <mxCell id="pzgc2I4rD5SpLiHXZyAi-21" value="10" style="ellipse;whiteSpace=wrap;html=1;shadow=1;strokeWidth=4;fontSize=30;align=center;" vertex="1" parent="1">
          <mxGeometry x="1095" y="1110" width="80" height="80" as="geometry" />
        </mxCell>
        <mxCell id="pzgc2I4rD5SpLiHXZyAi-54" style="edgeStyle=none;orthogonalLoop=1;jettySize=auto;html=1;exitX=0;exitY=1;exitDx=0;exitDy=0;entryX=1;entryY=0;entryDx=0;entryDy=0;strokeColor=#FF4747;" edge="1" parent="1" source="pzgc2I4rD5SpLiHXZyAi-24" target="pzgc2I4rD5SpLiHXZyAi-17">
          <mxGeometry relative="1" as="geometry" />
        </mxCell>
        <mxCell id="pzgc2I4rD5SpLiHXZyAi-24" value="11" style="ellipse;whiteSpace=wrap;html=1;shadow=1;strokeWidth=4;fontSize=30;align=center;" vertex="1" parent="1">
          <mxGeometry x="1470" y="605" width="80" height="80" as="geometry" />
        </mxCell>
        <mxCell id="pzgc2I4rD5SpLiHXZyAi-27" value="&lt;span style=&quot;font-size: 30px&quot;&gt;A(30)&lt;/span&gt;" style="text;html=1;align=center;verticalAlign=middle;resizable=0;points=[];autosize=1;strokeColor=none;" vertex="1" parent="1">
          <mxGeometry x="285" y="560" width="90" height="30" as="geometry" />
        </mxCell>
        <mxCell id="pzgc2I4rD5SpLiHXZyAi-28" value="H(5)" style="text;html=1;align=center;verticalAlign=middle;resizable=0;points=[];autosize=1;strokeColor=none;fontSize=30;" vertex="1" parent="1">
          <mxGeometry x="550" y="580" width="70" height="40" as="geometry" />
        </mxCell>
        <mxCell id="pzgc2I4rD5SpLiHXZyAi-30" value="&lt;span style=&quot;font-size: 30px&quot;&gt;B(4)&lt;/span&gt;" style="text;html=1;align=center;verticalAlign=middle;resizable=0;points=[];autosize=1;strokeColor=none;rotation=-48;" vertex="1" parent="1">
          <mxGeometry x="480" y="460" width="70" height="30" as="geometry" />
        </mxCell>
        <mxCell id="pzgc2I4rD5SpLiHXZyAi-33" value="&lt;font style=&quot;font-size: 30px&quot;&gt;L(5)&lt;/font&gt;" style="text;html=1;align=center;verticalAlign=middle;resizable=0;points=[];autosize=1;strokeColor=none;rotation=30;" vertex="1" parent="1">
          <mxGeometry x="720" y="890" width="70" height="30" as="geometry" />
        </mxCell>
        <mxCell id="pzgc2I4rD5SpLiHXZyAi-34" value="&lt;font style=&quot;font-size: 30px&quot;&gt;D(5)&lt;/font&gt;" style="text;html=1;align=center;verticalAlign=middle;resizable=0;points=[];autosize=1;strokeColor=none;rotation=-40;" vertex="1" parent="1">
          <mxGeometry x="750" y="250" width="70" height="30" as="geometry" />
        </mxCell>
        <mxCell id="pzgc2I4rD5SpLiHXZyAi-37" value="&lt;font style=&quot;font-size: 30px&quot;&gt;d(0)&lt;/font&gt;" style="text;html=1;align=center;verticalAlign=middle;resizable=0;points=[];autosize=1;strokeColor=none;" vertex="1" parent="1">
          <mxGeometry x="1030" y="200" width="70" height="30" as="geometry" />
        </mxCell>
        <mxCell id="pzgc2I4rD5SpLiHXZyAi-39" value="&lt;font style=&quot;font-size: 30px&quot;&gt;E(2)&lt;/font&gt;" style="text;html=1;align=center;verticalAlign=middle;resizable=0;points=[];autosize=1;strokeColor=none;" vertex="1" parent="1">
          <mxGeometry x="860" y="330" width="70" height="30" as="geometry" />
        </mxCell>
        <mxCell id="pzgc2I4rD5SpLiHXZyAi-40" value="&lt;font style=&quot;font-size: 30px&quot;&gt;C(4)&lt;/font&gt;" style="text;html=1;align=center;verticalAlign=middle;resizable=0;points=[];autosize=1;strokeColor=none;rotation=45;" vertex="1" parent="1">
          <mxGeometry x="860" y="630" width="70" height="30" as="geometry" />
        </mxCell>
        <mxCell id="pzgc2I4rD5SpLiHXZyAi-45" value="&lt;font style=&quot;font-size: 30px&quot;&gt;F(2)&lt;/font&gt;" style="text;html=1;align=center;verticalAlign=middle;resizable=0;points=[];autosize=1;strokeColor=none;rotation=20;" vertex="1" parent="1">
          <mxGeometry x="870" y="470" width="70" height="30" as="geometry" />
        </mxCell>
        <mxCell id="pzgc2I4rD5SpLiHXZyAi-46" value="&lt;font style=&quot;font-size: 30px&quot;&gt;I(10)&lt;/font&gt;" style="text;html=1;align=center;verticalAlign=middle;resizable=0;points=[];autosize=1;strokeColor=none;rotation=30;" vertex="1" parent="1">
          <mxGeometry x="790" y="730" width="80" height="30" as="geometry" />
        </mxCell>
        <mxCell id="pzgc2I4rD5SpLiHXZyAi-47" value="&lt;font style=&quot;font-size: 30px&quot;&gt;M(15)&lt;/font&gt;" style="text;html=1;align=center;verticalAlign=middle;resizable=0;points=[];autosize=1;strokeColor=none;rotation=-50;" vertex="1" parent="1">
          <mxGeometry x="1320" y="940" width="90" height="30" as="geometry" />
        </mxCell>
        <mxCell id="pzgc2I4rD5SpLiHXZyAi-48" value="&lt;font style=&quot;font-size: 30px&quot;&gt;J(3)&lt;/font&gt;" style="text;html=1;align=center;verticalAlign=middle;resizable=0;points=[];autosize=1;strokeColor=none;" vertex="1" parent="1">
          <mxGeometry x="1100" y="785" width="70" height="30" as="geometry" />
        </mxCell>
        <mxCell id="pzgc2I4rD5SpLiHXZyAi-49" value="&lt;font style=&quot;font-size: 30px&quot;&gt;G(25)&lt;/font&gt;" style="text;html=1;align=center;verticalAlign=middle;resizable=0;points=[];autosize=1;strokeColor=none;" vertex="1" parent="1">
          <mxGeometry x="1130" y="330" width="90" height="30" as="geometry" />
        </mxCell>
        <mxCell id="pzgc2I4rD5SpLiHXZyAi-50" value="&lt;font style=&quot;font-size: 30px&quot;&gt;N(3)&lt;/font&gt;" style="text;html=1;align=center;verticalAlign=middle;resizable=0;points=[];autosize=1;strokeColor=none;rotation=60;" vertex="1" parent="1">
          <mxGeometry x="1390" y="470" width="70" height="30" as="geometry" />
        </mxCell>
        <mxCell id="pzgc2I4rD5SpLiHXZyAi-51" value="&lt;font style=&quot;font-size: 30px&quot;&gt;O(2)&lt;/font&gt;" style="text;html=1;align=center;verticalAlign=middle;resizable=0;points=[];autosize=1;strokeColor=none;rotation=-45;" vertex="1" parent="1">
          <mxGeometry x="1300" y="700" width="80" height="30" as="geometry" />
        </mxCell>
        <mxCell id="pzgc2I4rD5SpLiHXZyAi-55" value="&lt;span style=&quot;font-size: 30px&quot;&gt;&lt;font style=&quot;font-size: 30px;&quot;&gt;(0,30)&lt;/font&gt;&lt;/span&gt;" style="text;html=1;align=center;verticalAlign=middle;resizable=0;points=[];autosize=1;strokeColor=none;fontSize=30;fontColor=#FF1919;" vertex="1" parent="1">
          <mxGeometry x="280" y="500" width="90" height="40" as="geometry" />
        </mxCell>
        <mxCell id="pzgc2I4rD5SpLiHXZyAi-58" value="(30,34)" style="text;html=1;align=center;verticalAlign=middle;resizable=0;points=[];autosize=1;strokeColor=none;fontSize=30;fontColor=#FF1919;rotation=-45;" vertex="1" parent="1">
          <mxGeometry x="420" y="410" width="110" height="40" as="geometry" />
        </mxCell>
        <mxCell id="pzgc2I4rD5SpLiHXZyAi-59" value="(34,39)" style="text;html=1;align=center;verticalAlign=middle;resizable=0;points=[];autosize=1;strokeColor=none;fontSize=30;fontColor=#FF1919;rotation=-45;" vertex="1" parent="1">
          <mxGeometry x="700" y="195" width="110" height="40" as="geometry" />
        </mxCell>
        <mxCell id="pzgc2I4rD5SpLiHXZyAi-60" value="(34,36)" style="text;html=1;align=center;verticalAlign=middle;resizable=0;points=[];autosize=1;strokeColor=none;fontSize=30;fontColor=#FF1919;rotation=30;" vertex="1" parent="1">
          <mxGeometry x="870" y="420" width="110" height="40" as="geometry" />
        </mxCell>
        <mxCell id="pzgc2I4rD5SpLiHXZyAi-71" value="&lt;font color=&quot;#000000&quot;&gt;K(5)&lt;/font&gt;" style="text;html=1;align=center;verticalAlign=middle;resizable=0;points=[];autosize=1;strokeColor=none;fontSize=30;fontColor=#FF1919;rotation=75;" vertex="1" parent="1">
          <mxGeometry x="1115" y="940" width="70" height="40" as="geometry" />
        </mxCell>
        <mxCell id="pzgc2I4rD5SpLiHXZyAi-72" value="(39,64)" style="text;html=1;align=center;verticalAlign=middle;resizable=0;points=[];autosize=1;strokeColor=none;fontSize=30;fontColor=#FF1919;" vertex="1" parent="1">
          <mxGeometry x="1095" y="270" width="110" height="40" as="geometry" />
        </mxCell>
        <mxCell id="pzgc2I4rD5SpLiHXZyAi-73" value="(30,35)" style="text;html=1;align=center;verticalAlign=middle;resizable=0;points=[];autosize=1;strokeColor=none;fontSize=30;fontColor=#FF1919;" vertex="1" parent="1">
          <mxGeometry x="530" y="540" width="110" height="40" as="geometry" />
        </mxCell>
        <mxCell id="pzgc2I4rD5SpLiHXZyAi-74" value="(64,67)" style="text;html=1;align=center;verticalAlign=middle;resizable=0;points=[];autosize=1;strokeColor=none;fontSize=30;fontColor=#FF1919;rotation=60;" vertex="1" parent="1">
          <mxGeometry x="1410" y="430" width="110" height="40" as="geometry" />
        </mxCell>
        <mxCell id="pzgc2I4rD5SpLiHXZyAi-75" value="(67,69)" style="text;html=1;align=center;verticalAlign=middle;resizable=0;points=[];autosize=1;strokeColor=none;fontSize=30;fontColor=#FF1919;rotation=-45;" vertex="1" parent="1">
          <mxGeometry x="1255" y="660" width="110" height="40" as="geometry" />
        </mxCell>
        <mxCell id="pzgc2I4rD5SpLiHXZyAi-77" value="(30,35)" style="text;html=1;align=center;verticalAlign=middle;resizable=0;points=[];autosize=1;strokeColor=none;fontSize=30;fontColor=#FF1919;rotation=30;" vertex="1" parent="1">
          <mxGeometry x="680" y="930" width="110" height="40" as="geometry" />
        </mxCell>
        <mxCell id="pzgc2I4rD5SpLiHXZyAi-78" value="(35,45)" style="text;html=1;align=center;verticalAlign=middle;resizable=0;points=[];autosize=1;strokeColor=none;fontSize=30;fontColor=#FF1919;rotation=30;" vertex="1" parent="1">
          <mxGeometry x="770" y="760" width="110" height="40" as="geometry" />
        </mxCell>
        <mxCell id="pzgc2I4rD5SpLiHXZyAi-79" value="(34,38)" style="text;html=1;align=center;verticalAlign=middle;resizable=0;points=[];autosize=1;strokeColor=none;fontSize=30;fontColor=#FF1919;rotation=45;" vertex="1" parent="1">
          <mxGeometry x="877" y="590" width="110" height="40" as="geometry" />
        </mxCell>
        <mxCell id="pzgc2I4rD5SpLiHXZyAi-80" value="(45,48)" style="text;html=1;align=center;verticalAlign=middle;resizable=0;points=[];autosize=1;strokeColor=none;fontSize=30;fontColor=#FF1919;" vertex="1" parent="1">
          <mxGeometry x="1095" y="740" width="110" height="40" as="geometry" />
        </mxCell>
        <mxCell id="pzgc2I4rD5SpLiHXZyAi-81" value="(36,41)" style="text;html=1;align=center;verticalAlign=middle;resizable=0;points=[];autosize=1;strokeColor=none;fontSize=30;fontColor=#FF1919;rotation=75;" vertex="1" parent="1">
          <mxGeometry x="1130" y="930" width="110" height="40" as="geometry" />
        </mxCell>
        <mxCell id="pzgc2I4rD5SpLiHXZyAi-82" value="(41,56)" style="text;html=1;align=center;verticalAlign=middle;resizable=0;points=[];autosize=1;strokeColor=none;fontSize=30;rotation=-45;fontColor=#FF1919;" vertex="1" parent="1">
          <mxGeometry x="1350" y="970" width="110" height="40" as="geometry" />
        </mxCell>
        <mxCell id="pzgc2I4rD5SpLiHXZyAi-102" value="&lt;font color=&quot;#ff1919&quot;&gt;(34,36)&lt;/font&gt;" style="text;html=1;align=center;verticalAlign=middle;resizable=0;points=[];autosize=1;strokeColor=none;fontSize=30;fontColor=#3C00FF;rotation=0;" vertex="1" parent="1">
          <mxGeometry x="840" y="280" width="110" height="40" as="geometry" />
        </mxCell>
      </root>
    </mxGraphModel>
  </diagram>
</mxfile>
